<svg width="25" height="25" viewBox="0 0 25 25" fill="none" xmlns="http://www.w3.org/2000/svg">
<circle cx="12.5" cy="12.5" r="12.5" fill="black"/>
<g clip-path="url(#clip0_174_588)">
<path d="M15.7499 11.4166H15.0674C14.8647 10.6317 14.446 9.91945 13.8587 9.36067C13.2715 8.80189 12.5393 8.41904 11.7453 8.25561C10.9513 8.09218 10.1274 8.15473 9.36725 8.43616C8.60705 8.71758 7.94104 9.20659 7.44488 9.84762C6.94872 10.4887 6.64231 11.256 6.56047 12.0625C6.47864 12.869 6.62465 13.6822 6.98193 14.4099C7.3392 15.1375 7.89341 15.7503 8.58158 16.1787C9.26975 16.6071 10.0643 16.8339 10.8749 16.8333H15.7499C16.4682 16.8333 17.1571 16.548 17.665 16.04C18.1729 15.5321 18.4582 14.8433 18.4582 14.125C18.4582 13.4067 18.1729 12.7178 17.665 12.2099C17.1571 11.702 16.4682 11.4166 15.7499 11.4166Z" stroke="white" stroke-width="1.75" stroke-linecap="round" stroke-linejoin="round"/>
</g>
<defs>
<clipPath id="clip0_174_588">
<rect width="13" height="13" fill="white" transform="translate(6 6)"/>
</clipPath>
</defs>
</svg>
