<svg width="25" height="25" viewBox="0 0 25 25" fill="none" xmlns="http://www.w3.org/2000/svg">
<circle cx="12.5" cy="12.5" r="12.5" fill="black"/>
<g clip-path="url(#clip0_174_244)">
<rect width="12" height="14" transform="translate(7 6)" fill="black"/>
<path d="M18.27 9.74504C18.2106 9.4682 18.0897 9.21454 17.9194 9.00969C17.7491 8.80485 17.5354 8.65607 17.3 8.57837C16.44 8.33337 13 8.33337 13 8.33337C13 8.33337 9.56004 8.33337 8.70004 8.60171C8.46467 8.6794 8.25103 8.82818 8.08071 9.03303C7.9104 9.23787 7.78944 9.49153 7.73004 9.76837C7.57265 10.7866 7.49566 11.8196 7.50004 12.8542C7.49443 13.8966 7.57143 14.9375 7.73004 15.9634C7.79552 16.2316 7.91919 16.4756 8.08911 16.6718C8.25903 16.868 8.46945 17.0098 8.70004 17.0834C9.56004 17.3517 13 17.3517 13 17.3517C13 17.3517 16.44 17.3517 17.3 17.0834C17.5354 17.0057 17.7491 16.8569 17.9194 16.6521C18.0897 16.4472 18.2106 16.1936 18.27 15.9167C18.4262 14.9061 18.5032 13.8811 18.5 12.8542C18.5057 11.8118 18.4287 10.7709 18.27 9.74504Z" stroke="white" stroke-width="2" stroke-linecap="round" stroke-linejoin="round"/>
<path d="M12 14.815L14.875 12.9075L12 11V14.815Z" stroke="white" stroke-width="2" stroke-linecap="round" stroke-linejoin="round"/>
</g>
<defs>
<clipPath id="clip0_174_244">
<rect width="12" height="14" fill="white" transform="translate(7 6)"/>
</clipPath>
</defs>
</svg>
