<svg width="25" height="25" viewBox="0 0 25 25" fill="none" xmlns="http://www.w3.org/2000/svg">
<circle cx="12.5" cy="12.5" r="12.5" fill="black"/>
<path d="M10.3278 17.1452C7.23652 18.0726 7.23652 15.5996 6 15.2904M14.6556 19V16.6073C14.6788 16.3125 14.639 16.0162 14.5388 15.7379C14.4386 15.4597 14.2803 15.206 14.0745 14.9937C16.0158 14.7773 18.056 14.0416 18.056 10.6659C18.0559 9.80267 17.7239 8.97258 17.1287 8.3474C17.4105 7.5922 17.3906 6.75746 17.073 6.01657C17.073 6.01657 16.3435 5.80017 14.6556 6.93159C13.2386 6.54754 11.7449 6.54754 10.3278 6.93159C8.63996 5.80017 7.91042 6.01657 7.91042 6.01657C7.59287 6.75746 7.57294 7.5922 7.85478 8.3474C7.25514 8.97722 6.92277 9.81481 6.92739 10.6844C6.92739 14.0354 8.96764 14.7711 10.909 15.0122C10.7056 15.2224 10.5487 15.4731 10.4486 15.7479C10.3484 16.0227 10.3073 16.3156 10.3278 16.6073V19" stroke="white" stroke-width="1.23652" stroke-linecap="round" stroke-linejoin="round"/>
</svg>
